<mxfile host="app.diagrams.net" modified="2024-05-18T12:39:17.709Z" agent="Mozilla/5.0 (Windows NT 10.0; Win64; x64) AppleWebKit/537.36 (KHTML, like Gecko) Chrome/125.0.0.0 Safari/537.36" version="24.4.4" etag="gar9XyIuFxJvh1lD2XCN" type="github">
  <diagram name="Seite-1" id="rgT6GwzFdFSDxX3BY2rw">
    <mxGraphModel>
      <root>
        <mxCell id="0" />
        <mxCell id="1" parent="0" />
      </root>
    </mxGraphModel>
  </diagram>
</mxfile>
